<svg xmlns="http://www.w3.org/2000/svg" viewBox="0 0 1152 648">
  <title>maps_narrative</title>
  <g id="blackboxes">
    <rect x="49.49" y="58.31" width="321.32" height="127.46" style="fill: #010101;opacity: 0.43"/>
  </g>
  <g id="Subtitles">
    <text transform="translate(63.83 83.46)" style="font-size: 12px;fill: #fff;font-family: Roboto-Regular, Roboto">Mig<tspan x="20.12" y="0" style="letter-spacing: -0.01953125em">r</tspan><tspan x="23.95" y="0">ation is full of </tspan><tspan x="99.37" y="0" style="font-family: Roboto-Bold, Roboto;font-weight: 700">DIS</tspan><tspan x="118.04" y="0" style="font-family: Roboto-Bold, Roboto;font-weight: 700;letter-spacing: -0.05859375em">T</tspan><tspan x="124.76" y="0" style="font-family: Roboto-Bold, Roboto;font-weight: 700">ANCE UNKNOWN</tspan><tspan x="218.61" y="0" xml:space="preserve"> - a fa</tspan><tspan x="248.06" y="0" style="letter-spacing: -0.06005859375em">r</tspan><tspan x="251.4" y="0">, costl</tspan><tspan x="282.87" y="0" style="letter-spacing: -0.05224609375em">y</tspan><tspan x="287.92" y="0">, </tspan><tspan x="0" y="14.4">mentally and physically st</tspan><tspan x="136.81" y="14.4" style="letter-spacing: -0.01953125em">r</tspan><tspan x="140.64" y="14.4">aining journ</tspan><tspan x="202.94" y="14.4" style="letter-spacing: -0.00634765625em">e</tspan><tspan x="209.22" y="14.4">y for mig</tspan><tspan x="256.07" y="14.4" style="letter-spacing: -0.01953125em">r</tspan><tspan x="259.9" y="14.4">ants </tspan><tspan x="0" y="28.8">as th</tspan><tspan x="26.21" y="28.8" style="letter-spacing: -0.00634765625em">e</tspan><tspan x="32.5" y="28.8">y sepa</tspan><tspan x="66.95" y="28.8" style="letter-spacing: -0.01953125em">r</tspan><tspan x="70.78" y="28.8">ate f</tspan><tspan x="94.72" y="28.8" style="letter-spacing: -0.009765625em">r</tspan><tspan x="98.66" y="28.8">om their home, their count</tspan><tspan x="238.59" y="28.8" style="letter-spacing: 0.0087890625em">r</tspan><tspan x="242.75" y="28.8" style="letter-spacing: -0.05224609375em">y</tspan><tspan x="247.8" y="28.8">, and </tspan><tspan x="0" y="43.2">the family th</tspan><tspan x="66.07" y="43.2" style="letter-spacing: -0.00634765625em">e</tspan><tspan x="72.35" y="43.2">y l</tspan><tspan x="83.91" y="43.2" style="letter-spacing: -0.00732421875em">o</tspan><tspan x="90.67" y="43.2" style="letter-spacing: -0.00634765625em">v</tspan><tspan x="96.4" y="43.2">e. Acco</tspan><tspan x="136.13" y="43.2" style="letter-spacing: -0.00927734375em">r</tspan><tspan x="140.07" y="43.2">ding </tspan><tspan x="166.08" y="43.2" style="letter-spacing: -0.009765625em">t</tspan><tspan x="169.88" y="43.2">o the the IOM in 2021, </tspan><tspan style="font-family: Roboto-Bold, Roboto;font-weight: 700"><tspan x="0" y="57.6">134,000 MIGRA</tspan><tspan x="85.14" y="57.6" style="letter-spacing: -0.01416015625em">N</tspan><tspan x="93.45" y="57.6" style="letter-spacing: -0.0078125em">T</tspan><tspan x="100.78" y="57.6">S WORLDWIDE</tspan><tspan x="180.42" y="57.6" xml:space="preserve" style="font-family: Roboto-Regular, Roboto;font-weight: 400"> ris</tspan><tspan x="196.55" y="57.6" style="font-family: Roboto-Regular, Roboto;font-weight: 400;letter-spacing: -0.009765625em">k</tspan><tspan x="202.51" y="57.6" style="font-family: Roboto-Regular, Roboto;font-weight: 400">ed their li</tspan><tspan x="251.26" y="57.6" style="font-family: Roboto-Regular, Roboto;font-weight: 400;letter-spacing: -0.00634765625em">v</tspan><tspan x="257" y="57.6" style="font-family: Roboto-Regular, Roboto;font-weight: 400">es </tspan></tspan><tspan x="0" y="72">c</tspan><tspan x="6.28" y="72" style="letter-spacing: -0.009765625em">r</tspan><tspan x="10.22" y="72">ossing Cent</tspan><tspan x="73.39" y="72" style="letter-spacing: -0.01953125em">r</tspan><tspan x="77.21" y="72">al America for oppo</tspan><tspan x="182.27" y="72" style="letter-spacing: 0.0244140625em">r</tspan><tspan x="186.63" y="72">tunities in No</tspan><tspan x="256.95" y="72" style="letter-spacing: 0.0244140625em">r</tspan><tspan x="261.3" y="72">th </tspan><tspan x="0" y="86.4">America.</tspan></text>
  </g>
</svg>
