<svg xmlns="http://www.w3.org/2000/svg" viewBox="0 0 1152 648">
  <title>maps_narrative</title>
  <g id="blackboxes">
    <rect x="796.08" y="342.98" width="321.32" height="80.43" style="fill: #010101;opacity: 0.43"/>
  </g>
  <g id="Subtitles">
    <text transform="translate(810.42 365.32)" style="font-size: 12px;fill: #fff;font-family: Roboto-Regular, Roboto">In 2022, the <tspan x="64.99" y="0" style="letter-spacing: -0.01513671875em">W</tspan><tspan x="75.46" y="0">orld </tspan><tspan x="99.01" y="0" style="letter-spacing: -0.01025390625em">F</tspan><tspan x="105.52" y="0">ood P</tspan><tspan x="136.52" y="0" style="letter-spacing: -0.009765625em">r</tspan><tspan x="140.46" y="0">og</tspan><tspan x="154.04" y="0" style="letter-spacing: -0.01953125em">r</tspan><tspan x="157.86" y="0">amme inte</tspan><tspan x="214.56" y="0" style="letter-spacing: 0.0087890625em">r</tspan><tspan x="218.73" y="0">viewed </tspan><tspan x="0" y="14.4">mig</tspan><tspan x="20.16" y="14.4" style="letter-spacing: -0.01953125em">r</tspan><tspan x="23.99" y="14.4">ants in 4 bo</tspan><tspan x="86" y="14.4" style="letter-spacing: -0.00927734375em">r</tspan><tspan x="89.95" y="14.4">der locations: Colombia, at the bo</tspan><tspan x="268.31" y="14.4" style="letter-spacing: -0.00927734375em">r</tspan><tspan x="272.26" y="14.4">der </tspan><tspan x="0" y="28.8">of </tspan><tspan x="13.98" y="28.8" style="letter-spacing: -0.00537109375em">P</tspan><tspan x="21.49" y="28.8">anam</tspan><tspan x="51.68" y="28.8" style="letter-spacing: -0.03271484375em">á</tspan><tspan x="57.81" y="28.8" style="letter-spacing: -0.0546875em">’</tspan><tspan x="59.55" y="28.8">s Darién Jungle, Hondu</tspan><tspan x="182.62" y="28.8" style="letter-spacing: -0.01953125em">r</tspan><tspan x="186.45" y="28.8">as, and Guatemala. </tspan><tspan x="0" y="43.2">These a</tspan><tspan x="42.17" y="43.2" style="letter-spacing: -0.00927734375em">r</tspan><tspan x="46.12" y="43.2">e their pathw</tspan><tspan x="115.08" y="43.2" style="letter-spacing: -0.00732421875em">a</tspan><tspan x="121.52" y="43.2">ys.</tspan></text>
  </g>
</svg>
