<svg xmlns="http://www.w3.org/2000/svg" viewBox="0 0 1152 648">
  <title>4</title>
  <g id="Subtitles">
    <text transform="translate(50.69 320.79)" style="font-size: 12px;fill: #fff;font-family: Roboto-Regular, Roboto">Mig<tspan x="20.12" y="0" style="letter-spacing: -0.01953125em">r</tspan><tspan x="23.95" y="0">ants in our study t</tspan><tspan x="119.23" y="0" style="letter-spacing: -0.01953125em">r</tspan><tspan x="123.05" y="0" style="letter-spacing: -0.00732421875em">a</tspan><tspan x="129.49" y="0" style="letter-spacing: -0.00634765625em">v</tspan><tspan x="135.23" y="0">eled f</tspan><tspan x="164.76" y="0" style="letter-spacing: -0.009765625em">r</tspan><tspan x="168.7" y="0">om as far aw</tspan><tspan x="237.99" y="0" style="letter-spacing: -0.00732421875em">a</tspan><tspan x="244.43" y="0">y as </tspan><tspan x="0" y="14.4">China, A</tspan><tspan x="43.63" y="14.4" style="letter-spacing: -0.01171875em">f</tspan><tspan x="47.66" y="14.4">ghanistan, India, and Bangladesh. Many </tspan><tspan x="0" y="28.8">su</tspan><tspan x="12.8" y="28.8" style="letter-spacing: 0.0087890625em">r</tspan><tspan x="16.97" y="28.8" style="letter-spacing: -0.00634765625em">vey</tspan><tspan x="34.59" y="28.8">ed came f</tspan><tspan x="87.5" y="28.8" style="letter-spacing: -0.009765625em">r</tspan><tspan x="91.45" y="28.8">om African countries; the highest </tspan><tspan x="0" y="43.2">number we</tspan><tspan x="59.25" y="43.2" style="letter-spacing: -0.00927734375em">r</tspan><tspan x="63.2" y="43.2">e f</tspan><tspan x="76.69" y="43.2" style="letter-spacing: -0.009765625em">r</tspan><tspan x="80.64" y="43.2" xml:space="preserve">om Senegal, Angola, Guinea,  Sier</tspan><tspan x="257.67" y="43.2" style="letter-spacing: -0.01953125em">r</tspan><tspan x="261.49" y="43.2">a </tspan><tspan x="0" y="57.6">Leone. Once, th</tspan><tspan x="82.13" y="57.6" style="letter-spacing: -0.00634765625em">e</tspan><tspan x="88.41" y="57.6">y </tspan><tspan x="97.06" y="57.6" style="letter-spacing: -0.00927734375em">r</tspan><tspan x="101.01" y="57.6">eached South America mig</tspan><tspan x="244.58" y="57.6" style="letter-spacing: -0.01953125em">r</tspan><tspan x="248.4" y="57.6">ants </tspan><tspan x="0" y="72">began their journ</tspan><tspan x="89.78" y="72" style="letter-spacing: -0.00634765625em">e</tspan><tspan x="96.06" y="72">y </tspan><tspan x="104.71" y="72" style="letter-spacing: -0.009765625em">t</tspan><tspan x="108.51" y="72">o the bo</tspan><tspan x="151.76" y="72" style="letter-spacing: -0.00927734375em">r</tspan><tspan x="155.71" y="72">der of Colombia and </tspan><tspan x="0" y="86.4" style="letter-spacing: -0.00537109375em">P</tspan><tspan x="7.51" y="86.4">anamá.</tspan></text>
  </g>
</svg>
