<svg xmlns="http://www.w3.org/2000/svg" viewBox="0 0 1152 648">
  <title>maps_narrative</title>
  <g id="blackboxes">
    <rect x="49.49" y="58.31" width="321.32" height="141.64" style="fill: #010101;opacity: 0.43"/>
  </g>
  <g id="Subtitles">
    <text transform="translate(63.83 83.46)" style="font-size: 12px;fill: #fff;font-family: Roboto-Regular, Roboto"><tspan style="letter-spacing: -0.01025390625em">F</tspan><tspan x="6.51" y="0">or many mig</tspan><tspan x="72.86" y="0" style="letter-spacing: -0.01953125em">r</tspan><tspan x="76.69" y="0">ants the most difficult pa</tspan><tspan x="210.09" y="0" style="letter-spacing: 0.0244140625em">r</tspan><tspan x="214.45" y="0">t of trip is the </tspan><tspan x="0" y="14.4">passage th</tspan><tspan x="58.75" y="14.4" style="letter-spacing: -0.009765625em">r</tspan><tspan x="62.7" y="14.4">ough the Darién Jungle.</tspan><tspan x="188.66" y="14.4" style="letter-spacing: -0.01953125em"> </tspan><tspan x="191.4" y="14.4">The thick fo</tspan><tspan x="254.28" y="14.4" style="letter-spacing: -0.00927734375em">r</tspan><tspan x="258.23" y="14.4">est is </tspan><tspan x="0" y="28.8">t</tspan><tspan x="3.92" y="28.8" style="letter-spacing: -0.00927734375em">r</tspan><tspan x="7.87" y="28.8">eache</tspan><tspan x="40" y="28.8" style="letter-spacing: -0.009765625em">r</tspan><tspan x="43.95" y="28.8">ous and most mig</tspan><tspan x="140.05" y="28.8" style="letter-spacing: -0.01953125em">r</tspan><tspan x="143.88" y="28.8">ants need </tspan><tspan x="199.18" y="28.8" style="letter-spacing: -0.009765625em">t</tspan><tspan x="202.98" y="28.8">o p</tspan><tspan x="219.53" y="28.8" style="letter-spacing: -0.00732421875em">a</tspan><tspan x="225.97" y="28.8">y guides </tspan><tspan x="273.16" y="28.8" style="letter-spacing: -0.009765625em">t</tspan><tspan x="276.96" y="28.8">o </tspan><tspan x="0" y="43.2">help them with the passage. Mig</tspan><tspan x="172.75" y="43.2" style="letter-spacing: -0.01953125em">r</tspan><tspan x="176.57" y="43.2">ants a</tspan><tspan x="209.33" y="43.2" style="letter-spacing: -0.00927734375em">r</tspan><tspan x="213.28" y="43.2">e often </tspan><tspan x="0" y="57.6">unp</tspan><tspan x="19.97" y="57.6" style="letter-spacing: -0.00927734375em">r</tspan><tspan x="23.92" y="57.6">epa</tspan><tspan x="43.54" y="57.6" style="letter-spacing: -0.00927734375em">r</tspan><tspan x="47.48" y="57.6">ed for this passage, the 2022 </tspan><tspan x="204.58" y="57.6" style="letter-spacing: -0.01513671875em">W</tspan><tspan x="215.05" y="57.6">orld </tspan><tspan x="238.6" y="57.6" style="letter-spacing: -0.01025390625em">F</tspan><tspan x="245.11" y="57.6">ood </tspan><tspan x="0" y="72">P</tspan><tspan x="7.57" y="72" style="letter-spacing: -0.009765625em">r</tspan><tspan x="11.51" y="72">og</tspan><tspan x="25.09" y="72" style="letter-spacing: -0.01953125em">r</tspan><tspan x="28.92" y="72">am su</tspan><tspan x="61.73" y="72" style="letter-spacing: 0.0087890625em">r</tspan><tspan x="65.9" y="72" style="letter-spacing: -0.00634765625em">ve</tspan><tspan x="77.92" y="72" xml:space="preserve">y  showed that the g</tspan><tspan x="184.83" y="72" style="letter-spacing: -0.00927734375em">r</tspan><tspan x="188.78" y="72">eatest need is cash </tspan><tspan x="0" y="86.4" style="letter-spacing: -0.009765625em">t</tspan><tspan x="3.8" y="86.4">o fu</tspan><tspan x="24.4" y="86.4" style="letter-spacing: 0.0244140625em">r</tspan><tspan x="28.75" y="86.4">ther their trip, drinking wate</tspan><tspan x="173.95" y="86.4" style="letter-spacing: -0.06005859375em">r</tspan><tspan x="177.29" y="86.4">, and access </tspan><tspan x="246.3" y="86.4" style="letter-spacing: -0.009765625em">t</tspan><tspan x="250.1" y="86.4">o the </tspan><tspan x="0" y="100.8">internet for mo</tspan><tspan x="79.14" y="100.8" style="letter-spacing: -0.00927734375em">r</tspan><tspan x="83.09" y="100.8">e cash.</tspan></text>
  </g>
</svg>
