<svg xmlns="http://www.w3.org/2000/svg" viewBox="0 0 1152 648">
  <title>maps_narrative</title>
  <g id="blackboxes">
    <rect x="49.49" y="58.31" width="321.32" height="141.64" style="fill: #010101;opacity: 0.43"/>
  </g>
  <g id="Subtitles">
    <text transform="translate(63.83 83.46)" style="font-size: 12px;fill: #fff;font-family: Roboto-Regular, Roboto">In <tspan x="12.86" y="0" style="letter-spacing: -0.00927734375em">r</tspan><tspan x="16.8" y="0">esponse </tspan><tspan x="65.06" y="0" style="letter-spacing: -0.009765625em">t</tspan><tspan x="68.87" y="0">o the inc</tspan><tspan x="114.35" y="0" style="letter-spacing: -0.00927734375em">r</tspan><tspan x="118.3" y="0">eased mig</tspan><tspan x="173.63" y="0" style="letter-spacing: -0.01953125em">r</tspan><tspan x="177.46" y="0">ation th</tspan><tspan x="217.78" y="0" style="letter-spacing: -0.009765625em">r</tspan><tspan x="221.73" y="0">ough the </tspan><tspan x="0" y="14.4">Darién in 2019, the </tspan><tspan x="101.96" y="14.4" style="letter-spacing: -0.00537109375em">P</tspan><tspan x="109.47" y="14.4">anamanian G</tspan><tspan x="180.01" y="14.4" style="letter-spacing: -0.00732421875em">o</tspan><tspan x="186.77" y="14.4" style="letter-spacing: -0.00634765625em">v</tspan><tspan x="192.5" y="14.4">ernment began </tspan><tspan x="0" y="28.8">p</tspan><tspan x="6.73" y="28.8" style="letter-spacing: -0.009765625em">r</tspan><tspan x="10.68" y="28.8" style="letter-spacing: -0.00732421875em">o</tspan><tspan x="17.43" y="28.8">viding mig</tspan><tspan x="72.32" y="28.8" style="letter-spacing: -0.01953125em">r</tspan><tspan x="76.15" y="28.8">ants with tempo</tspan><tspan x="162.18" y="28.8" style="letter-spacing: -0.01953125em">r</tspan><tspan x="166" y="28.8">a</tspan><tspan x="172.53" y="28.8" style="letter-spacing: 0.0087890625em">r</tspan><tspan x="176.7" y="28.8">y shelte</tspan><tspan x="217.69" y="28.8" style="letter-spacing: -0.06005859375em">r</tspan><tspan x="221.03" y="28.8">, o</tspan><tspan x="233.2" y="28.8" style="letter-spacing: -0.00927734375em">r</tspan><tspan x="237.15" y="28.8">gani</tspan><tspan x="259.94" y="28.8" style="letter-spacing: -0.0078125em">z</tspan><tspan x="265.79" y="28.8">ed </tspan><tspan x="0" y="43.2">boats and buses for t</tspan><tspan x="113.08" y="43.2" style="letter-spacing: -0.01953125em">r</tspan><tspan x="116.91" y="43.2">ansit as pa</tspan><tspan x="174.99" y="43.2" style="letter-spacing: 0.0244140625em">r</tspan><tspan x="179.34" y="43.2">t of a </tspan><tspan x="209.71" y="43.2" style="letter-spacing: -0.02880859375em">&quot;</tspan><tspan x="213.21" y="43.2">cont</tspan><tspan x="236.87" y="43.2" style="letter-spacing: -0.009765625em">r</tspan><tspan x="240.81" y="43.2">olled </tspan><tspan x="0" y="57.6">flow ope</tspan><tspan x="45.84" y="57.6" style="letter-spacing: -0.01953125em">r</tspan><tspan x="49.67" y="57.6">ation</tspan><tspan x="76.49" y="57.6" style="letter-spacing: -0.0830078125em">.</tspan><tspan x="78.66" y="57.6">&quot; Mig</tspan><tspan x="105.59" y="57.6" style="letter-spacing: -0.01953125em">r</tspan><tspan x="109.41" y="57.6">ants pictu</tspan><tspan x="162.1" y="57.6" style="letter-spacing: -0.00927734375em">r</tspan><tspan x="166.05" y="57.6">ed he</tspan><tspan x="195.11" y="57.6" style="letter-spacing: -0.00927734375em">r</tspan><tspan x="199.06" y="57.6">e wait at San </tspan><tspan x="0" y="72">Vincente camp for a bus </tspan><tspan x="132.75" y="72" style="letter-spacing: -0.009765625em">t</tspan><tspan x="136.55" y="72">o ta</tspan><tspan x="156.81" y="72" style="letter-spacing: -0.009765625em">k</tspan><tspan x="162.78" y="72">e them </tspan><tspan x="202.48" y="72" style="letter-spacing: -0.009765625em">t</tspan><tspan x="206.29" y="72">o the bo</tspan><tspan x="249.53" y="72" style="letter-spacing: -0.00927734375em">r</tspan><tspan x="253.48" y="72">der of </tspan><tspan x="0" y="86.4">Costa Rica.</tspan><tspan x="60.53" y="86.4" style="letter-spacing: -0.01953125em"> </tspan><tspan x="63.26" y="86.4">Th</tspan><tspan x="77.03" y="86.4" style="letter-spacing: -0.00634765625em">e</tspan><tspan x="83.31" y="86.4">y a</tspan><tspan x="98.49" y="86.4" style="letter-spacing: -0.00927734375em">r</tspan><tspan x="102.44" y="86.4">e holding food package gi</tspan><tspan x="239.58" y="86.4" style="letter-spacing: -0.00634765625em">v</tspan><tspan x="245.32" y="86.4">en </tspan><tspan x="261.27" y="86.4" style="letter-spacing: -0.009765625em">t</tspan><tspan x="265.07" y="86.4">o </tspan><tspan x="0" y="100.8">them befo</tspan><tspan x="54.47" y="100.8" style="letter-spacing: -0.00927734375em">r</tspan><tspan x="58.42" y="100.8">e the bus.</tspan></text>
  </g>
</svg>
