<svg xmlns="http://www.w3.org/2000/svg" viewBox="0 0 1152 648">
  <title>maps_narrative</title>
  <g id="blackboxes">
    <rect x="49.49" y="58.31" width="321.32" height="110.99" style="fill: #010101;opacity: 0.43"/>
  </g>
  <g id="Subtitles">
    <text transform="translate(63.83 83.46)" style="font-size: 12px;fill: #fff;font-family: Roboto-Regular, Roboto"><tspan style="letter-spacing: -0.00634765625em">P</tspan><tspan x="7.49" y="0">eople disembark after arriving </tspan><tspan x="169.4" y="0" style="letter-spacing: -0.00537109375em">b</tspan><tspan x="176.06" y="0">y </tspan><tspan x="184.71" y="0" style="letter-spacing: -0.01953125em">r</tspan><tspan x="188.54" y="0">aft f</tspan><tspan x="210.29" y="0" style="letter-spacing: -0.009765625em">r</tspan><tspan x="214.23" y="0">om Guatemala </tspan><tspan x="0" y="14.4" style="letter-spacing: -0.009765625em">t</tspan><tspan x="3.8" y="14.4">o Ciudad Hidalgo, México. Rafts often car</tspan><tspan x="224.42" y="14.4" style="letter-spacing: 0.0087890625em">r</tspan><tspan x="228.59" y="14.4">y </tspan><tspan x="0" y="28.8">passengers and supplies ac</tspan><tspan x="148.23" y="28.8" style="letter-spacing: -0.009765625em">r</tspan><tspan x="152.17" y="28.8">oss the Suchiate Ri</tspan><tspan x="253.83" y="28.8" style="letter-spacing: -0.00634765625em">v</tspan><tspan x="259.56" y="28.8">er </tspan><tspan x="0" y="43.2">between</tspan><tspan x="45.36" y="43.2" style="letter-spacing: -0.01953125em"> </tspan><tspan x="48.1" y="43.2" style="letter-spacing: -0.04833984375em">T</tspan><tspan x="54.68" y="43.2">ecún Umán, Guatemala, and Ciudad Hidalgo, </tspan><tspan x="0" y="57.6">México. Mexican me</tspan><tspan x="109.92" y="57.6" style="letter-spacing: -0.00927734375em">r</tspan><tspan x="113.87" y="57.6">chants often t</tspan><tspan x="187.78" y="57.6" style="letter-spacing: -0.01953125em">r</tspan><tspan x="191.61" y="57.6" style="letter-spacing: -0.00732421875em">a</tspan><tspan x="198.05" y="57.6" style="letter-spacing: -0.00634765625em">v</tspan><tspan x="203.78" y="57.6">el ac</tspan><tspan x="228.83" y="57.6" style="letter-spacing: -0.009765625em">r</tspan><tspan x="232.78" y="57.6">oss the </tspan><tspan x="0" y="72">ri</tspan><tspan x="6.97" y="72" style="letter-spacing: -0.00634765625em">v</tspan><tspan x="12.71" y="72">er </tspan><tspan x="26.1" y="72" style="letter-spacing: -0.009765625em">t</tspan><tspan x="29.9" y="72">o sell goods.</tspan></text>
  </g>
</svg>
