<svg xmlns="http://www.w3.org/2000/svg" viewBox="0 0 1152 648">
  <title>maps_narrative</title>
  <g id="blackboxes">
    <rect x="783.59" y="58.31" width="321.32" height="141.64" style="fill: #010101;opacity: 0.43"/>
  </g>
  <g id="Subtitles">
    <text transform="translate(797.93 83.46)" style="font-size: 12px;fill: #fff;font-family: Roboto-Regular, Roboto">Guatemalan <tspan x="67.67" y="0" style="letter-spacing: -0.00732421875em">v</tspan><tspan x="73.4" y="0">olunteers of</tspan><tspan x="137.25" y="0" style="letter-spacing: -0.01171875em">f</tspan><tspan x="141.28" y="0">er food </tspan><tspan x="182.26" y="0" style="letter-spacing: -0.009765625em">t</tspan><tspan x="186.06" y="0">o mig</tspan><tspan x="216.04" y="0" style="letter-spacing: -0.01953125em">r</tspan><tspan x="219.86" y="0">ants at the </tspan><tspan x="0" y="14.4">bo</tspan><tspan x="13.58" y="14.4" style="letter-spacing: -0.00927734375em">r</tspan><tspan x="17.53" y="14.4">de</tspan><tspan x="30.65" y="14.4" style="letter-spacing: -0.06005859375em">r</tspan><tspan x="33.99" y="14.4">. D</tspan><tspan x="47.99" y="14.4" style="letter-spacing: -0.0078125em">oz</tspan><tspan x="60.59" y="14.4">ens of Cent</tspan><tspan x="121.42" y="14.4" style="letter-spacing: -0.01953125em">r</tspan><tspan x="125.24" y="14.4">al American mig</tspan><tspan x="211.89" y="14.4" style="letter-spacing: -0.01953125em">r</tspan><tspan x="215.72" y="14.4">ants st</tspan><tspan x="252.05" y="14.4" style="letter-spacing: -0.01953125em">r</tspan><tspan x="255.88" y="14.4">anded </tspan><tspan x="0" y="28.8">at the Ceibo bo</tspan><tspan x="80.48" y="28.8" style="letter-spacing: -0.00927734375em">r</tspan><tspan x="84.43" y="28.8">der c</tspan><tspan x="110.87" y="28.8" style="letter-spacing: -0.009765625em">r</tspan><tspan x="114.81" y="28.8">ossing between México and </tspan><tspan x="0" y="43.2">Guatemala we</tspan><tspan x="76.42" y="43.2" style="letter-spacing: -0.00927734375em">r</tspan><tspan x="80.37" y="43.2">e ta</tspan><tspan x="100.15" y="43.2" style="letter-spacing: -0.009765625em">k</tspan><tspan x="106.11" y="43.2">en </tspan><tspan x="122.06" y="43.2" style="letter-spacing: -0.00537109375em">b</tspan><tspan x="128.73" y="43.2">y the Mexican authorities </tspan><tspan x="265.17" y="43.2" style="letter-spacing: -0.009765625em">t</tspan><tspan x="268.97" y="43.2">o </tspan><tspan x="0" y="57.6">detention centers for mig</tspan><tspan x="134.25" y="57.6" style="letter-spacing: -0.01953125em">r</tspan><tspan x="138.08" y="57.6">ants in México. Acco</tspan><tspan x="248.99" y="57.6" style="letter-spacing: -0.00927734375em">r</tspan><tspan x="252.94" y="57.6">ding </tspan><tspan x="278.94" y="57.6" style="letter-spacing: -0.009765625em">t</tspan><tspan x="282.74" y="57.6">o </tspan><tspan x="0" y="72">mig</tspan><tspan x="20.16" y="72" style="letter-spacing: -0.01953125em">r</tspan><tspan x="23.99" y="72">ants in the 2022 </tspan><tspan x="112.5" y="72" style="letter-spacing: -0.01513671875em">W</tspan><tspan x="122.97" y="72">orld </tspan><tspan x="146.52" y="72" style="letter-spacing: -0.01025390625em">F</tspan><tspan x="153.03" y="72">ood P</tspan><tspan x="184.03" y="72" style="letter-spacing: -0.009765625em">r</tspan><tspan x="187.97" y="72">og</tspan><tspan x="201.55" y="72" style="letter-spacing: -0.01953125em">r</tspan><tspan x="205.37" y="72">am su</tspan><tspan x="238.19" y="72" style="letter-spacing: 0.0087890625em">r</tspan><tspan x="242.36" y="72" style="letter-spacing: -0.00634765625em">ve</tspan><tspan x="254.37" y="72">y 28% </tspan><tspan x="0" y="86.4">of mig</tspan><tspan x="34.14" y="86.4" style="letter-spacing: -0.01953125em">r</tspan><tspan x="37.97" y="86.4">ants depend on local populations p</tspan><tspan x="224.2" y="86.4" style="letter-spacing: -0.009765625em">r</tspan><tspan x="228.15" y="86.4" style="letter-spacing: -0.00732421875em">o</tspan><tspan x="234.9" y="86.4">visions of </tspan><tspan x="0" y="100.8">f</tspan><tspan x="4.17" y="100.8" style="letter-spacing: -0.00927734375em">r</tspan><tspan x="8.12" y="100.8">ee food.</tspan></text>
  </g>
</svg>
